<svg width="73" height="73" viewBox="0 0 73 73" fill="none" xmlns="http://www.w3.org/2000/svg">
<rect x="0.807129" y="0.5" width="72" height="72" rx="16" fill="#eef3f4"/>
<path d="M36.8071 17.5C31.768 17.5 26.9353 19.5018 23.3721 23.065C19.8089 26.6282 17.8071 31.4609 17.8071 36.5C17.8071 41.5391 19.8089 46.3718 23.3721 49.935C26.9353 53.4982 31.768 55.5 36.8071 55.5L36.8071 36.5V17.5Z" fill="#004346"/>
<path d="M36.8071 55.5C41.8462 55.5 46.679 53.4982 50.2422 49.935C53.8053 46.3718 55.8071 41.5391 55.8071 36.5C55.8071 31.4609 53.8054 26.6282 50.2422 23.065C46.679 19.5018 41.8462 17.5 36.8071 17.5L36.8071 36.5L36.8071 55.5Z" fill="#508991"/>
</svg>
