<svg width="73" height="73" viewBox="0 0 73 73" fill="none" xmlns="http://www.w3.org/2000/svg">
<rect x="0.228516" y="0.5" width="72" height="72" rx="16" fill="#eef3f4"/>
<path d="M57.3924 47.1464L57.4017 47.1413H57.3836L46.7573 41.3833L36.1134 35.6152L25.4691 41.3833L14.8428 47.1413H14.8247L14.834 47.1464L14.8247 47.1515H14.8428L25.4691 52.9094L36.1134 58.6775L46.7573 52.9094L57.3836 47.1515H57.4017L57.3924 47.1464Z" fill="#508991"/>
<path d="M57.3924 25.0312L57.4017 25.0265H57.3836L46.7573 19.2681L36.1134 13.5L25.4691 19.2681L14.8428 25.0265H14.8247L14.834 25.0312L14.8247 25.0362H14.8428L25.4691 30.7946L36.1134 36.5627L46.7573 30.7946L57.3836 25.0362H57.4017L57.3924 25.0312Z" fill="#004346"/>
<path d="M14.8428 24.5625V47.6151L36.1134 36.089L14.8428 24.5625Z" fill="#508991"/>
<path d="M57.3835 24.5625V47.6151L36.1133 36.089L57.3835 24.5625Z" fill="#508991"/>
</svg>
