<svg width="280" height="280" viewBox="0 0 384 347" fill="none" xmlns="http://www.w3.org/2000/svg">
<circle opacity="0.9" cx="182.466" cy="167.846" r="151.064" fill="#004346"/>
<circle opacity="0.3" cx="70.0474" cy="69.6865" r="69.5322" fill="#004346"/>
<path d="M121.607 168.099C121.488 167.716 121.325 167.373 121.117 167.07C120.913 166.762 120.667 166.499 120.378 166.281C120.094 166.063 119.767 165.9 119.398 165.791C119.029 165.678 118.626 165.621 118.191 165.621C117.409 165.621 116.713 165.817 116.102 166.21C115.492 166.603 115.011 167.181 114.661 167.943C114.315 168.701 114.142 169.624 114.142 170.713C114.142 171.812 114.315 172.742 114.661 173.504C115.006 174.267 115.487 174.847 116.102 175.244C116.718 175.637 117.433 175.834 118.247 175.834C118.986 175.834 119.625 175.692 120.165 175.408C120.709 175.124 121.128 174.721 121.422 174.2C121.716 173.675 121.862 173.059 121.862 172.354L122.459 172.446H118.51V170.386H124.412V172.134C124.412 173.379 124.147 174.456 123.617 175.365C123.086 176.274 122.357 176.975 121.429 177.467C120.501 177.955 119.436 178.199 118.233 178.199C116.893 178.199 115.717 177.898 114.703 177.297C113.695 176.691 112.906 175.831 112.338 174.719C111.775 173.601 111.493 172.276 111.493 170.741C111.493 169.567 111.659 168.518 111.99 167.595C112.326 166.672 112.795 165.888 113.396 165.244C113.998 164.596 114.703 164.103 115.513 163.767C116.323 163.426 117.203 163.256 118.155 163.256C118.96 163.256 119.71 163.374 120.406 163.611C121.102 163.843 121.72 164.174 122.26 164.605C122.805 165.036 123.252 165.547 123.602 166.139C123.953 166.731 124.182 167.384 124.291 168.099H121.607ZM126.96 178V163.455H136.42V165.663H129.595V169.612H135.93V171.821H129.595V175.791H136.477V178H126.96ZM138.469 165.663V163.455H150.074V165.663H145.579V178H142.965V165.663H138.469ZM159.907 163.455V178H157.273V163.455H159.907ZM174.714 163.455V178H172.37L165.517 168.092H165.396V178H162.761V163.455H165.119L171.965 173.369H172.093V163.455H174.714ZM181.907 165.663V163.455H193.512V165.663H189.016V178H186.403V165.663H181.907ZM208.102 170.727C208.102 172.295 207.808 173.637 207.221 174.754C206.639 175.867 205.843 176.719 204.835 177.311C203.831 177.903 202.692 178.199 201.419 178.199C200.145 178.199 199.004 177.903 197.995 177.311C196.991 176.714 196.196 175.86 195.609 174.747C195.026 173.63 194.735 172.29 194.735 170.727C194.735 169.16 195.026 167.82 195.609 166.707C196.196 165.59 196.991 164.735 197.995 164.143C199.004 163.552 200.145 163.256 201.419 163.256C202.692 163.256 203.831 163.552 204.835 164.143C205.843 164.735 206.639 165.59 207.221 166.707C207.808 167.82 208.102 169.16 208.102 170.727ZM205.453 170.727C205.453 169.624 205.28 168.694 204.934 167.936C204.593 167.174 204.12 166.598 203.514 166.21C202.908 165.817 202.209 165.621 201.419 165.621C200.628 165.621 199.929 165.817 199.323 166.21C198.717 166.598 198.241 167.174 197.896 167.936C197.555 168.694 197.384 169.624 197.384 170.727C197.384 171.83 197.555 172.763 197.896 173.526C198.241 174.283 198.717 174.858 199.323 175.251C199.929 175.64 200.628 175.834 201.419 175.834C202.209 175.834 202.908 175.64 203.514 175.251C204.12 174.858 204.593 174.283 204.934 173.526C205.28 172.763 205.453 171.83 205.453 170.727ZM219.762 163.455H222.397V172.957C222.397 173.999 222.151 174.915 221.658 175.706C221.171 176.497 220.484 177.115 219.599 177.56C218.713 178 217.679 178.22 216.495 178.22C215.306 178.22 214.269 178 213.384 177.56C212.499 177.115 211.812 176.497 211.324 175.706C210.837 174.915 210.593 173.999 210.593 172.957V163.455H213.228V172.737C213.228 173.343 213.36 173.883 213.626 174.357C213.895 174.83 214.274 175.202 214.762 175.472C215.25 175.737 215.827 175.869 216.495 175.869C217.162 175.869 217.74 175.737 218.228 175.472C218.72 175.202 219.099 174.83 219.364 174.357C219.629 173.883 219.762 173.343 219.762 172.737V163.455ZM237.711 168.362H235.055C234.979 167.927 234.839 167.541 234.636 167.205C234.432 166.864 234.179 166.575 233.876 166.338C233.573 166.101 233.227 165.924 232.839 165.805C232.455 165.682 232.041 165.621 231.596 165.621C230.805 165.621 230.105 165.82 229.494 166.217C228.883 166.61 228.405 167.188 228.059 167.95C227.713 168.708 227.541 169.634 227.541 170.727C227.541 171.84 227.713 172.777 228.059 173.54C228.41 174.297 228.888 174.87 229.494 175.259C230.105 175.642 230.803 175.834 231.589 175.834C232.025 175.834 232.432 175.777 232.811 175.663C233.194 175.545 233.537 175.372 233.84 175.145C234.148 174.918 234.406 174.638 234.615 174.307C234.828 173.975 234.974 173.597 235.055 173.17L237.711 173.185C237.612 173.876 237.396 174.525 237.065 175.131C236.738 175.737 236.31 176.272 235.779 176.736C235.249 177.195 234.629 177.555 233.919 177.815C233.208 178.071 232.42 178.199 231.553 178.199C230.275 178.199 229.134 177.903 228.13 177.311C227.126 176.719 226.336 175.865 225.758 174.747C225.18 173.63 224.892 172.29 224.892 170.727C224.892 169.16 225.183 167.82 225.765 166.707C226.347 165.59 227.141 164.735 228.144 164.143C229.148 163.552 230.285 163.256 231.553 163.256C232.363 163.256 233.116 163.369 233.812 163.597C234.508 163.824 235.128 164.158 235.673 164.598C236.217 165.034 236.665 165.569 237.015 166.203C237.37 166.833 237.602 167.553 237.711 168.362ZM240.124 178V163.455H242.759V169.612H249.499V163.455H252.141V178H249.499V171.821H242.759V178H240.124Z" fill="white"/>
<circle opacity="0.3" cx="306.923" cy="269.158" r="76.9395" fill="#004346"/>
</svg>
