<svg width="44" height="46" viewBox="0 0 44 46" fill="none" xmlns="http://www.w3.org/2000/svg">
<path d="M43.3924 34.1464L43.4017 34.1413H43.3836L32.7573 28.3833L22.1134 22.6152L11.4691 28.3833L0.84279 34.1413H0.824707L0.833959 34.1464L0.824707 34.1515H0.84279L11.4691 39.9094L22.1134 45.6775L32.7573 39.9094L43.3836 34.1515H43.4017L43.3924 34.1464Z" fill="#508991"/>
<path d="M43.3924 12.0312L43.4017 12.0265H43.3836L32.7573 6.26811L22.1134 0.5L11.4691 6.26811L0.84279 12.0265H0.824707L0.833959 12.0312L0.824707 12.0362H0.84279L11.4691 17.7946L22.1134 23.5627L32.7573 17.7946L43.3836 12.0362H43.4017L43.3924 12.0312Z" fill="#004346"/>
<path d="M0.842773 11.5625V34.6151L22.1134 23.089L0.842773 11.5625Z" fill="#508991"/>
<path d="M43.3835 11.5625V34.6151L22.1133 23.089L43.3835 11.5625Z" fill="#508991"/>
</svg>
